{
    "asset" : {
        "generator" : "Khronos glTF Blender I/O v1.0.5",
        "version" : "2.0"
    },
    "scene" : 0,
    "scenes" : [
        {
            "name" : "Scene",
            "nodes" : [
                0
            ]
        }
    ],
    "nodes" : [
        {
            "mesh" : 0,
            "name" : "Curve",
            "rotation" : [
                0.7071067690849304,
                0,
                0,
                0.7071067690849304
            ],
            "scale" : [
                16.419580459594727,
                16.419580459594727,
                16.419580459594727
            ],
            "translation" : [
                -1.3556771278381348,
                -2.3379321098327637,
                0.24955742061138153
            ]
        }
    ],
    "materials" : [
        {
            "doubleSided" : true,
            "emissiveFactor" : [
                0,
                0,
                0
            ],
            "name" : "r_materal",
            "pbrMetallicRoughness" : {
                "baseColorFactor" : [
                    0,
                    0.00041025737300515175,
                    1,
                    1
                ],
                "baseColorTexture" : {
                    "index" : 0,
                    "texCoord" : 0
                },
                "metallicFactor" : 1,
                "roughnessFactor" : 1
            }
        }
    ],
    "meshes" : [
        {
            "name" : "Curve",
            "primitives" : [
                {
                    "attributes" : {
                        "POSITION" : 0,
                        "NORMAL" : 1
                    },
                    "indices" : 2,
                    "material" : 0
                }
            ]
        }
    ],
    "textures" : [
        {
            "source" : 0
        }
    ],
    "images" : [
        {
            "mimeType" : "image/png",
            "name" : "texture",
            "uri" : "texture.png"
        }
    ],
    "accessors" : [
        {
            "bufferView" : 0,
            "componentType" : 5126,
            "count" : 2630,
            "max" : [
                0.1511218100786209,
                0,
                -0.07786719501018524
            ],
            "min" : [
                0.026856817305088043,
                -0.029999999329447746,
                -0.19029435515403748
            ],
            "type" : "VEC3"
        },
        {
            "bufferView" : 1,
            "componentType" : 5126,
            "count" : 2630,
            "type" : "VEC3"
        },
        {
            "bufferView" : 2,
            "componentType" : 5123,
            "count" : 4320,
            "type" : "SCALAR"
        }
    ],
    "bufferViews" : [
        {
            "buffer" : 0,
            "byteLength" : 31560,
            "byteOffset" : 0
        },
        {
            "buffer" : 0,
            "byteLength" : 31560,
            "byteOffset" : 31560
        },
        {
            "buffer" : 0,
            "byteLength" : 8640,
            "byteOffset" : 63120
        }
    ],
    "buffers" : [
        {
            "byteLength" : 71760,
            "uri" : "R_red.bin"
        }
    ]
}
